<?xml version="1.0" standalone="no"?>
<!DOCTYPE svg PUBLIC "-//W3C//DTD SVG 20010904//EN"
 "http://www.w3.org/TR/2001/REC-SVG-20010904/DTD/svg10.dtd">
<svg version="1.0" xmlns="http://www.w3.org/2000/svg"
 width="512.000000pt" height="512.000000pt" viewBox="0 0 512.000000 512.000000"
 preserveAspectRatio="xMidYMid meet">

<g transform="translate(0.000000,512.000000) scale(0.100000,-0.100000)"
fill="#000000" stroke="none">
<path d="M1301 5025 c-284 -62 -501 -332 -501 -625 0 -269 177 -514 435 -604
36 -13 68 -25 70 -27 2 -2 -3 -29 -11 -59 -67 -260 117 -536 391 -583 124 -21
287 23 377 102 20 17 38 31 42 31 3 0 28 -14 55 -30 134 -83 330 -123 495
-102 105 13 240 58 310 103 26 16 49 29 53 29 3 0 21 -14 41 -31 90 -79 253
-123 377 -102 143 25 280 122 345 246 18 34 34 63 35 64 1 2 37 9 81 17 90 16
221 64 276 101 20 14 40 25 44 25 3 0 22 -14 42 -31 90 -79 253 -123 377 -102
188 32 342 174 390 358 65 251 -94 513 -350 580 -33 8 -75 15 -95 15 -35 0
-35 0 -54 68 -110 384 -507 629 -906 558 -231 -42 -444 -194 -561 -401 l-30
-54 -57 34 c-227 136 -509 151 -747 40 -38 -18 -90 -46 -115 -63 l-44 -31 -22
59 c-33 92 -82 168 -159 245 -150 151 -372 216 -584 170z m225 -156 c194 -35
350 -195 384 -392 12 -67 12 -67 -18 -115 -44 -67 -90 -170 -104 -229 l-12
-50 -66 -6 c-101 -8 -193 -51 -282 -130 -26 -22 -32 -24 -80 -15 -136 25 -276
132 -336 259 -89 187 -54 399 92 545 115 115 265 162 422 133z m2431 -24 c93
-29 209 -102 268 -166 88 -97 151 -231 169 -360 11 -73 30 -84 145 -84 83 0
104 -4 152 -26 201 -94 249 -357 93 -513 -62 -61 -134 -91 -224 -91 -96 0
-165 31 -235 104 -27 29 -61 57 -74 62 -26 11 -50 0 -147 -65 -58 -39 -199
-96 -239 -96 -18 0 -23 10 -33 71 -37 215 -242 398 -448 399 l-41 0 -12 54
c-16 70 -77 196 -130 266 -44 58 -44 64 -11 130 86 170 270 305 463 340 84 15
212 5 304 -25z m-1270 -300 c187 -35 360 -167 441 -336 24 -50 48 -118 57
-169 24 -119 30 -125 158 -125 87 -1 109 -5 152 -25 197 -96 243 -361 90 -515
-92 -91 -240 -118 -357 -63 -35 16 -78 49 -112 84 -71 74 -86 74 -193 1 -120
-82 -214 -111 -363 -111 -149 0 -243 29 -363 111 -107 73 -122 73 -193 -1 -76
-79 -145 -111 -244 -111 -60 0 -86 5 -131 26 -141 66 -217 226 -176 370 47
159 183 251 347 235 94 -10 112 8 134 124 57 298 314 514 618 519 31 1 92 -6
135 -14z"/>
<path d="M800 3138 l0 -143 -88 88 c-48 48 -92 87 -98 87 -13 0 -104 -92 -104
-105 0 -6 65 -75 145 -155 l145 -145 0 -102 0 -103 -103 0 -102 0 -145 145
c-80 80 -149 145 -155 145 -13 0 -105 -92 -105 -105 0 -5 39 -49 87 -97 l88
-88 -143 0 -142 0 0 -80 0 -80 142 0 143 0 -90 -90 -90 -90 58 -57 57 -58 148
148 147 147 103 0 102 0 0 -102 0 -103 -147 -147 -148 -148 58 -57 57 -58 90
90 90 90 0 -143 0 -142 80 0 80 0 0 142 0 143 90 -90 90 -90 57 58 58 57 -148
148 -147 147 0 103 0 102 102 0 103 0 147 -147 148 -148 57 58 58 57 -90 90
-90 90 143 0 142 0 0 80 0 80 -142 0 -143 0 88 88 c48 48 87 92 87 98 0 13
-92 104 -105 104 -6 0 -75 -65 -155 -145 l-145 -145 -102 0 -103 0 0 103 0
102 145 145 c80 80 145 149 145 155 0 13 -92 105 -105 105 -5 0 -49 -39 -97
-87 l-88 -88 0 143 0 142 -80 0 -80 0 0 -142z"/>
<path d="M4041 3264 c-169 -45 -301 -180 -346 -351 -12 -47 -15 -157 -16 -638
l0 -580 -62 -46 c-185 -137 -320 -397 -334 -644 -29 -518 404 -951 922 -922
451 26 803 375 832 826 14 208 -51 415 -185 590 -50 66 -184 191 -204 191 -4
0 -8 262 -8 583 0 484 -3 592 -15 640 -67 259 -333 419 -584 351z m234 -171
c66 -21 154 -108 181 -178 17 -47 19 -88 21 -660 2 -335 5 -619 8 -631 2 -11
44 -50 91 -85 192 -142 296 -345 296 -579 0 -327 -211 -603 -527 -691 -106
-29 -258 -30 -366 -1 -407 108 -635 541 -493 933 53 147 136 255 266 346 45
32 80 64 83 76 3 12 6 299 8 637 2 607 2 616 24 662 28 61 94 132 148 158 85
41 159 45 260 13z"/>
<path d="M4078 2239 l-3 -722 -55 -13 c-193 -49 -355 -212 -405 -409 -8 -32
-15 -76 -15 -97 l0 -38 79 0 79 0 11 62 c15 84 53 159 111 218 65 64 139 99
237 112 55 7 85 16 101 31 l22 20 0 779 0 778 -80 0 -80 0 -2 -721z"/>
<path d="M4556 938 c-3 -13 -8 -41 -11 -62 -22 -134 -167 -279 -301 -301 -91
-15 -84 -7 -84 -95 l0 -80 43 0 c167 1 376 139 456 300 38 79 61 159 61 218
l0 42 -80 0 c-75 0 -80 -1 -84 -22z"/>
<path d="M3200 2880 l0 -80 160 0 160 0 0 80 0 80 -160 0 -160 0 0 -80z"/>
<path d="M3200 2560 l0 -80 160 0 160 0 0 80 0 80 -160 0 -160 0 0 -80z"/>
<path d="M3200 2240 l0 -80 160 0 160 0 0 80 0 80 -160 0 -160 0 0 -80z"/>
<path d="M3200 1920 l0 -80 160 0 160 0 0 80 0 80 -160 0 -160 0 0 -80z"/>
<path d="M1600 1538 l0 -143 -88 88 c-48 48 -92 87 -98 87 -13 0 -104 -92
-104 -105 0 -6 65 -75 145 -155 l145 -145 0 -102 0 -103 -103 0 -102 0 -145
145 c-80 80 -149 145 -155 145 -13 0 -105 -92 -105 -105 0 -5 39 -49 87 -97
l88 -88 -143 0 -142 0 0 -80 0 -80 142 0 143 0 -90 -90 -90 -90 58 -57 57 -58
148 148 147 147 103 0 102 0 0 -102 0 -103 -147 -147 -148 -148 58 -57 57 -58
90 90 90 90 0 -143 0 -142 80 0 80 0 0 142 0 143 90 -90 90 -90 57 58 58 57
-148 148 -147 147 0 103 0 102 102 0 103 0 147 -147 148 -148 57 58 58 57 -90
90 -90 90 143 0 142 0 0 80 0 80 -142 0 -143 0 88 88 c48 48 87 92 87 98 0 13
-92 104 -105 104 -6 0 -75 -65 -155 -145 l-145 -145 -102 0 -103 0 0 103 0
102 145 145 c80 80 145 149 145 155 0 13 -92 105 -105 105 -5 0 -49 -39 -97
-87 l-88 -88 0 143 0 142 -80 0 -80 0 0 -142z"/>
</g>
</svg>
